<svg xmlns="http://www.w3.org/2000/svg" version="1.1" xmlns:xlink="http://www.w3.org/1999/xlink" xmlns:svgjs="http://svgjs.com/svgjs" viewBox="0 0 140 140" width="140" height="140"><g transform="matrix(1.4,0,0,1.4,0,0)"><path d="M37.654,59.505a5.569,5.569,0,0,1,.794-2.867l3.386-5.644a1.545,1.545,0,0,1,1.323-.749H56.843a1.545,1.545,0,0,1,1.323.749l3.386,5.644a5.569,5.569,0,0,1,.794,2.867" fill="none" stroke="#7c7c7c" stroke-linecap="round" stroke-linejoin="round"></path><path d="M63.889,73.394a1.543,1.543,0,0,1-1.543-1.543V59.505A1.543,1.543,0,0,0,60.8,57.961H39.2a1.543,1.543,0,0,0-1.543,1.544V71.851a1.543,1.543,0,0,1-1.543,1.543H17.591a1.543,1.543,0,0,0-1.543,1.543v18.52A1.543,1.543,0,0,0,17.591,95H82.409a1.543,1.543,0,0,0,1.543-1.543V74.937a1.543,1.543,0,0,0-1.543-1.543Z" fill="none" stroke="#7c7c7c" stroke-linecap="round" stroke-linejoin="round"></path><path d="M47.901 66.233L50 64.135 50 75.678" fill="none" stroke="#7c7c7c" stroke-linecap="round" stroke-linejoin="round"></path><path d="M47.901 75.678L52.099 75.678" fill="none" stroke="#7c7c7c" stroke-linecap="round" stroke-linejoin="round"></path><path d="M23.764,80.925a3.149,3.149,0,0,1,6.3,0c0,2.1-6.3,8.4-6.3,8.4h6.3" fill="none" stroke="#7c7c7c" stroke-linecap="round" stroke-linejoin="round"></path><path d="M68.89,77.777h6.3l-3.148,4.2a4.2,4.2,0,1,1-4.2,4.2" fill="none" stroke="#7c7c7c" stroke-linecap="round" stroke-linejoin="round"></path><path d="M52.1,6.305l4.235,8.581a2.336,2.336,0,0,0,1.763,1.28l9.471,1.377a2.34,2.34,0,0,1,1.3,3.992l-6.854,6.68a2.344,2.344,0,0,0-.672,2.072l1.617,9.434a2.34,2.34,0,0,1-3.4,2.467l-8.471-4.453a2.337,2.337,0,0,0-2.178,0L40.44,42.188a2.34,2.34,0,0,1-3.4-2.467l1.617-9.434a2.337,2.337,0,0,0-.673-2.072l-6.853-6.68a2.34,2.34,0,0,1,1.3-3.992L41.9,16.166a2.337,2.337,0,0,0,1.763-1.28L47.9,6.305A2.34,2.34,0,0,1,52.1,6.305Z" fill="none" stroke="#7c7c7c" stroke-linecap="round" stroke-linejoin="round"></path><path d="M62.346,62.591H73.983a1.543,1.543,0,0,1,1.171.539l7.794,9.092a4.175,4.175,0,0,1,1,2.715" fill="none" stroke="#7c7c7c" stroke-linecap="round" stroke-linejoin="round"></path><path d="M37.654,62.591H26.017a1.543,1.543,0,0,0-1.171.539l-7.794,9.092a4.175,4.175,0,0,0-1,2.715" fill="none" stroke="#7c7c7c" stroke-linecap="round" stroke-linejoin="round"></path></g></svg>