<svg xmlns="http://www.w3.org/2000/svg" version="1.1" xmlns:xlink="http://www.w3.org/1999/xlink" xmlns:svgjs="http://svgjs.com/svgjs" viewBox="0 0 140 140" width="140" height="140"><g transform="matrix(1.4,0,0,1.4,0,0)"><path d="M10.000 52.457 A40.000 40.000 0 1 0 90.000 52.457 A40.000 40.000 0 1 0 10.000 52.457 Z" fill="#e8f4fa" stroke="#daedf7" stroke-miterlimit="10"></path><path d="M39.774,52.67a4.618,4.618,0,0,1,.658-2.374l2.8-4.672a1.276,1.276,0,0,1,1.1-.621H55.662a1.276,1.276,0,0,1,1.095.621l2.8,4.672a4.617,4.617,0,0,1,.657,2.374Z" fill="#ffe500" stroke="#45413c" stroke-linecap="round" stroke-linejoin="round"></path><path d="M78.111,82.665c0-1.411-12.585-2.555-28.11-2.555S21.89,81.254,21.89,82.665,34.476,85.221,50,85.221,78.111,84.077,78.111,82.665Z" fill="#45413c" opacity=".15"></path><path d="M61.5,64.17a1.278,1.278,0,0,1-1.278-1.278V52.67a1.278,1.278,0,0,0-1.277-1.278H41.052a1.278,1.278,0,0,0-1.278,1.278V62.892A1.278,1.278,0,0,1,38.5,64.17H23.164a1.278,1.278,0,0,0-1.278,1.277V80.78a1.278,1.278,0,0,0,1.278,1.278H76.829a1.278,1.278,0,0,0,1.278-1.278V65.447a1.278,1.278,0,0,0-1.278-1.277Z" fill="#ffffff"></path><path d="M21.886,65.447a1.278,1.278,0,0,1,1.278-1.277H38.5a1.279,1.279,0,0,0,1.278-1.278V55.225H30.14a1.276,1.276,0,0,0-.97.447L22.718,63.2A3.456,3.456,0,0,0,21.886,65.447Z" fill="#00b8f0" stroke="#45413c" stroke-linecap="round" stroke-linejoin="round"></path><path d="M78.107,65.447a1.278,1.278,0,0,0-1.278-1.277H61.5a1.278,1.278,0,0,1-1.278-1.278V55.225h9.635a1.276,1.276,0,0,1,.97.447L77.276,63.2A3.455,3.455,0,0,1,78.107,65.447Z" fill="#ff6242" stroke="#45413c" stroke-linecap="round" stroke-linejoin="round"></path><path d="M76.829,78.225H23.164a1.278,1.278,0,0,1-1.278-1.278V80.78a1.278,1.278,0,0,0,1.278,1.278H76.829a1.278,1.278,0,0,0,1.278-1.278V76.947A1.278,1.278,0,0,1,76.829,78.225Z" fill="#e8f4fa"></path><path d="M61.5,64.17a1.278,1.278,0,0,1-1.278-1.278V52.67a1.278,1.278,0,0,0-1.277-1.278H41.052a1.278,1.278,0,0,0-1.278,1.278V62.892A1.278,1.278,0,0,1,38.5,64.17H23.164a1.278,1.278,0,0,0-1.278,1.277V80.78a1.278,1.278,0,0,0,1.278,1.278H76.829a1.278,1.278,0,0,0,1.278-1.278V65.447a1.278,1.278,0,0,0-1.278-1.277Z" fill="none" stroke="#45413c" stroke-linecap="round" stroke-linejoin="round"></path><path d="M48.259 58.241L49.996 56.503 49.996 66.061" fill="none" stroke="#45413c" stroke-linecap="round" stroke-linejoin="round" stroke-width="1.5"></path><path d="M48.259 66.061L51.734 66.061" fill="none" stroke="#45413c" stroke-linecap="round" stroke-linejoin="round" stroke-width="1.5"></path><path d="M28.275,70.405a2.607,2.607,0,1,1,5.213,0c0,1.738-5.213,6.951-5.213,6.951h5.213" fill="none" stroke="#45413c" stroke-linecap="round" stroke-linejoin="round" stroke-width="1.5"></path><path d="M65.636,67.8h5.213l-2.606,3.476a3.476,3.476,0,1,1-3.476,3.475" fill="none" stroke="#45413c" stroke-linecap="round" stroke-linejoin="round" stroke-width="1.5"></path><path d="M51.735,8.623l3.506,7.105a1.933,1.933,0,0,0,1.459,1.06l7.842,1.14a1.938,1.938,0,0,1,1.074,3.305l-5.675,5.531a1.943,1.943,0,0,0-.557,1.715l1.339,7.811a1.937,1.937,0,0,1-2.811,2.042L50.9,34.646a1.936,1.936,0,0,0-1.8,0l-7.014,3.686a1.937,1.937,0,0,1-2.812-2.042l1.339-7.811a1.934,1.934,0,0,0-.557-1.715l-5.674-5.531a1.938,1.938,0,0,1,1.074-3.3l7.841-1.14a1.935,1.935,0,0,0,1.46-1.06l3.507-7.1A1.938,1.938,0,0,1,51.735,8.623Z" fill="#ffe500"></path><path d="M39.509,34.894l1.1-6.415a1.934,1.934,0,0,0-.557-1.715l-5.674-5.531a1.938,1.938,0,0,1,1.074-3.3l7.841-1.14a1.935,1.935,0,0,0,1.46-1.06l3.507-7.1a1.938,1.938,0,0,1,3.476,0l3.506,7.105a1.933,1.933,0,0,0,1.459,1.06Z" fill="#fff48c"></path><path d="M51.735,8.623l3.506,7.105a1.933,1.933,0,0,0,1.459,1.06l7.842,1.14a1.938,1.938,0,0,1,1.074,3.305l-5.675,5.531a1.943,1.943,0,0,0-.557,1.715l1.339,7.811a1.937,1.937,0,0,1-2.811,2.042L50.9,34.646a1.936,1.936,0,0,0-1.8,0l-7.014,3.686a1.937,1.937,0,0,1-2.812-2.042l1.339-7.811a1.934,1.934,0,0,0-.557-1.715l-5.674-5.531a1.938,1.938,0,0,1,1.074-3.3l7.841-1.14a1.935,1.935,0,0,0,1.46-1.06l3.507-7.1A1.938,1.938,0,0,1,51.735,8.623Z" fill="none" stroke="#45413c" stroke-linecap="round" stroke-linejoin="round"></path></g></svg>